<svg width="256" height="86" viewBox="0 0 256 86" fill="none" xmlns="http://www.w3.org/2000/svg">
<path d="M29 30.7328C29 29.625 29.9205 28.7273 31.0562 28.7273H54.9438C56.0795 28.7273 57 29.625 57 30.7328V54.7218C57 55.8295 56.0795 56.7273 54.9438 56.7273H31.0562C29.9205 56.7273 29 55.8295 29 54.7218V30.7328ZM37.6502 52.1668V39.523H33.4485V52.1668H37.6502ZM35.5503 37.7958C37.015 37.7958 37.9268 36.8263 37.9268 35.6118C37.9005 34.371 37.0168 33.4278 35.5782 33.4278C34.1398 33.4278 33.2 34.3728 33.2 35.6118C33.2 36.8263 34.1118 37.7958 35.5223 37.7958H35.5503ZM44.1392 52.1668V45.1055C44.1392 44.7275 44.1672 44.3495 44.2793 44.08C44.582 43.3258 45.2733 42.5435 46.4353 42.5435C47.956 42.5435 48.5632 43.702 48.5632 45.403V52.1668H52.765V44.9148C52.765 41.0298 50.693 39.2238 47.928 39.2238C45.6985 39.2238 44.6993 40.4488 44.1392 41.3115V41.3553H44.1112C44.1205 41.3407 44.1299 41.3261 44.1392 41.3115V39.523H39.9392C39.9917 40.7095 39.9392 52.1668 39.9392 52.1668H44.1392Z" fill="#64CCC5"/>
<path fill-rule="evenodd" clip-rule="evenodd" d="M124.374 41.4525C125.454 40.9725 126.383 40.2062 127.06 39.2365C127.696 38.1824 128.01 36.9649 127.962 35.7345C128.004 34.6097 127.796 33.4895 127.354 32.4545C126.992 31.5732 126.397 30.8066 125.634 30.2364C124.834 29.6564 123.924 29.2624 122.968 29.0844C121.839 28.8336 120.684 28.7142 119.528 28.7284H107.6C107.441 28.7284 107.288 28.7917 107.175 28.9042C107.063 29.0167 107 29.1693 107 29.3284V56.0106C107 56.1697 107.063 56.3223 107.175 56.4348C107.288 56.5473 107.441 56.6106 107.6 56.6106H119.8C120.968 56.6106 122.132 56.4546 123.26 56.1446C124.339 55.8487 125.356 55.3609 126.262 54.7046C127.157 54.0456 127.877 53.1786 128.362 52.1785C128.909 51.0387 129.175 49.7844 129.138 48.5205C129.179 46.958 128.763 45.4174 127.94 44.0885C127.085 42.7841 125.776 41.8433 124.268 41.4485H124.374V41.4525ZM113.1 33.2285C112.994 33.2285 112.892 33.2706 112.817 33.3456C112.742 33.4206 112.7 33.5224 112.7 33.6285V39.8285C112.7 40.0485 112.88 40.2285 113.1 40.2285H118.7C119.628 40.2285 120.518 39.8597 121.175 39.2034C121.831 38.547 122.2 37.6567 122.2 36.7285C122.2 35.8002 121.831 34.91 121.175 34.2536C120.518 33.5972 119.628 33.2285 118.7 33.2285H113.1ZM112.7 44.1285C112.7 43.9085 112.88 43.7285 113.1 43.7285H118.95C120.077 43.7285 121.158 44.1763 121.955 44.9733C122.752 45.7703 123.2 46.8513 123.2 47.9785C123.2 49.1057 122.752 50.1867 121.955 50.9837C121.158 51.7808 120.077 52.2285 118.95 52.2285H113.1C112.994 52.2285 112.892 52.1864 112.817 52.1114C112.742 52.0364 112.7 51.9346 112.7 51.8285V44.1285Z" fill="#64CCC5"/>
<path d="M134.878 30.1483H144.324C144.482 30.1483 144.633 30.2104 144.745 30.3212C144.858 30.432 144.922 30.5826 144.924 30.7403L144.95 32.6643C144.951 32.7438 144.936 32.8227 144.906 32.8964C144.877 32.9701 144.833 33.0372 144.777 33.0938C144.721 33.1503 144.655 33.1953 144.581 33.2259C144.508 33.2566 144.429 33.2723 144.35 33.2723H134.878C134.719 33.2723 134.566 33.2091 134.453 33.0966C134.341 32.9841 134.278 32.8315 134.278 32.6723V30.7483C134.278 30.5892 134.341 30.4366 134.453 30.3241C134.566 30.2115 134.719 30.1483 134.878 30.1483Z" fill="#64CCC5"/>
<path fill-rule="evenodd" clip-rule="evenodd" d="M139.944 52.4685C140.917 52.4974 141.874 52.2097 142.67 51.6485C143.19 51.3025 143.604 50.8085 143.866 50.2245C143.899 50.1484 143.953 50.0834 144.021 50.0373C144.09 49.9911 144.171 49.9659 144.254 49.9645H148.096C148.356 49.9645 148.548 50.2085 148.47 50.4565C147.901 52.3348 146.753 53.9853 145.19 55.1726C143.545 56.2432 141.611 56.7841 139.65 56.7226C138.256 56.7475 136.871 56.4918 135.578 55.9706C134.402 55.4738 133.354 54.7152 132.516 53.7526C131.686 52.7529 131.058 51.6015 130.668 50.3625C130.202 48.9777 129.975 47.5235 129.998 46.0625C129.984 44.622 130.218 43.1898 130.69 41.8285C131.122 40.584 131.799 39.4388 132.682 38.4605C133.55 37.52 134.6 36.7655 135.768 36.2425C137.024 35.6923 138.382 35.4129 139.754 35.4225C141.215 35.4008 142.658 35.7445 143.952 36.4225C145.136 37.0776 146.155 37.9942 146.932 39.1025C147.714 40.2585 148.284 41.5585 148.61 42.9365C148.946 44.3889 149.066 45.8831 148.966 47.3705H135.076C135.009 48.7869 135.473 50.1772 136.376 51.2705C136.86 51.7185 137.428 52.0565 138.042 52.2625C138.656 52.4685 139.304 52.5386 139.944 52.4685ZM135.2 43.5265C135.2 43.5531 135.205 43.5795 135.215 43.6041C135.225 43.6288 135.24 43.6511 135.258 43.6699C135.277 43.6888 135.3 43.7036 135.324 43.7137C135.349 43.7237 135.375 43.7288 135.402 43.7285H143.498C143.551 43.7285 143.603 43.7072 143.641 43.6693C143.679 43.6315 143.7 43.5801 143.7 43.5265C143.7 42.4529 143.273 41.4233 142.514 40.6641C141.755 39.905 140.725 39.4785 139.652 39.4785H139.248C138.174 39.4785 137.145 39.905 136.385 40.6641C135.626 41.4233 135.2 42.4529 135.2 43.5265Z" fill="#64CCC5"/>
<path d="M214.439 28.7293C215.461 28.7253 216.482 28.7356 217.504 28.7601L217.775 28.7699C218.089 28.7811 218.398 28.7951 218.772 28.8119C220.262 28.8819 221.278 29.117 222.17 29.4628C223.094 29.8184 223.872 30.3 224.65 31.0783C225.362 31.7778 225.913 32.6238 226.264 33.5576C226.61 34.4494 226.845 35.4671 226.915 36.9566C226.932 37.329 226.946 37.6398 226.957 37.9534L226.966 38.225C226.991 39.2458 227.001 40.2669 226.998 41.288L226.999 42.3324V44.1663C227.003 45.1879 226.992 46.2094 226.967 47.2307L226.959 47.5023C226.948 47.8159 226.934 48.1253 226.917 48.499C226.847 49.9886 226.609 51.0049 226.264 51.8967C225.914 52.8315 225.363 53.6782 224.65 54.3773C223.95 55.089 223.104 55.6397 222.17 55.9915C221.278 56.3372 220.262 56.5724 218.772 56.6424C218.398 56.6592 218.089 56.6732 217.775 56.6844L217.504 56.6928C216.482 56.7177 215.461 56.7284 214.439 56.725L213.395 56.7264H211.562C210.541 56.7299 209.519 56.7191 208.498 56.6942L208.226 56.6858C207.894 56.6738 207.562 56.6598 207.23 56.6438C205.74 56.5738 204.724 56.3358 203.831 55.9915C202.896 55.6406 202.05 55.0897 201.351 54.3773C200.639 53.6778 200.087 52.8312 199.736 51.8967C199.39 51.0049 199.155 49.9886 199.085 48.499C199.069 48.1669 199.055 47.8346 199.043 47.5023L199.036 47.2307C199.01 46.2094 198.998 45.1879 199.001 44.1663V41.288C198.997 40.2669 199.007 39.2458 199.032 38.225L199.041 37.9534C199.053 37.6398 199.067 37.329 199.083 36.9566C199.153 35.4657 199.389 34.4508 199.734 33.5576C200.086 32.6233 200.639 31.7775 201.353 31.0797C202.051 30.3668 202.897 29.815 203.831 29.4628C204.724 29.117 205.739 28.8819 207.23 28.8119L208.226 28.7699L208.498 28.7629C209.519 28.7371 210.54 28.7254 211.561 28.7279L214.439 28.7293ZM213 35.7289C212.073 35.7158 211.152 35.8871 210.291 36.233C209.431 36.5788 208.647 37.0923 207.987 37.7435C207.326 38.3947 206.802 39.1707 206.444 40.0264C206.086 40.882 205.901 41.8003 205.901 42.7278C205.901 43.6554 206.086 44.5737 206.444 45.4293C206.802 46.285 207.326 47.061 207.987 47.7122C208.647 48.3634 209.431 48.8769 210.291 49.2227C211.152 49.5686 212.073 49.7399 213 49.7268C214.857 49.7268 216.637 48.9893 217.95 47.6766C219.262 46.364 220 44.5836 220 42.7271C220 40.8707 219.262 39.0903 217.95 37.7776C216.637 36.465 214.857 35.7289 213 35.7289ZM213 38.5288C213.558 38.5185 214.112 38.6195 214.631 38.8258C215.149 39.0322 215.621 39.3398 216.019 39.7307C216.418 40.1215 216.734 40.5878 216.95 41.1023C217.166 41.6168 217.277 42.1692 217.277 42.7271C217.277 43.2851 217.166 43.8375 216.95 44.3521C216.735 44.8666 216.418 45.333 216.02 45.724C215.622 46.115 215.15 46.4228 214.632 46.6293C214.114 46.8358 213.559 46.937 213.001 46.9269C211.888 46.9269 210.819 46.4845 210.032 45.6968C209.244 44.9092 208.802 43.841 208.802 42.7271C208.802 41.6133 209.244 40.5451 210.032 39.7574C210.819 38.9698 211.888 38.5274 213.001 38.5274L213 38.5288ZM220.35 33.629C219.898 33.6471 219.471 33.8392 219.158 34.1651C218.845 34.4911 218.67 34.9255 218.67 35.3775C218.67 35.8295 218.845 36.264 219.158 36.5899C219.471 36.9158 219.898 37.108 220.35 37.126C220.814 37.126 221.259 36.9417 221.587 36.6135C221.915 36.2853 222.1 35.8402 222.1 35.3761C222.1 34.912 221.915 34.4669 221.587 34.1387C221.259 33.8106 220.814 33.6262 220.35 33.6262V33.629Z" fill="#64CCC5"/>
</svg>
