<svg width="81" height="81" viewBox="0 0 81 81" fill="none" xmlns="http://www.w3.org/2000/svg">
<path d="M40.5 21.1364C36.5232 21.141 32.7106 22.7229 29.8986 25.5349C27.0866 28.347 25.5047 32.1595 25.5 36.1363C25.4953 39.3862 26.5568 42.5479 28.5218 45.1363C28.5218 45.1363 28.9309 45.675 28.9977 45.7527L40.5 59.3181L52.0077 45.7459C52.0677 45.6736 52.4782 45.1363 52.4782 45.1363L52.4795 45.1322C54.4436 42.5449 55.5046 39.3847 55.5 36.1363C55.4953 32.1595 53.9134 28.347 51.1014 25.5349C48.2894 22.7229 44.4768 21.141 40.5 21.1364ZM40.5 41.5909C39.4212 41.5909 38.3666 41.271 37.4696 40.6716C36.5726 40.0723 35.8735 39.2204 35.4607 38.2237C35.0478 37.227 34.9398 36.1303 35.1503 35.0722C35.3607 34.0141 35.8802 33.0422 36.6431 32.2794C37.4059 31.5166 38.3778 30.9971 39.4359 30.7866C40.4939 30.5761 41.5907 30.6842 42.5874 31.097C43.584 31.5098 44.4359 32.209 45.0353 33.106C45.6346 34.003 45.9545 35.0575 45.9545 36.1363C45.9527 37.5824 45.3775 38.9688 44.3549 39.9913C43.3324 41.0138 41.9461 41.5891 40.5 41.5909Z" fill="#64CCC5"/>
</svg>
