<svg width="22" height="22" viewBox="0 0 22 22" fill="none" xmlns="http://www.w3.org/2000/svg">
<path d="M20.7959 19.2042L16.3438 14.7501C17.6787 13.0106 18.3019 10.8284 18.087 8.64618C17.8722 6.46401 16.8353 4.44527 15.1867 2.99948C13.5382 1.55369 11.4014 0.789103 9.20985 0.860827C7.0183 0.932551 4.93608 1.83521 3.38559 3.3857C1.8351 4.9362 0.932437 7.01841 0.860713 9.20996C0.788988 11.4015 1.55357 13.5383 2.99937 15.1868C4.44516 16.8354 6.4639 17.8723 8.64607 18.0871C10.8282 18.302 13.0104 17.6788 14.75 16.3439L19.2059 20.8007C19.3106 20.9054 19.4348 20.9884 19.5715 21.045C19.7083 21.1017 19.8548 21.1308 20.0028 21.1308C20.1508 21.1308 20.2974 21.1017 20.4341 21.045C20.5708 20.9884 20.695 20.9054 20.7997 20.8007C20.9043 20.6961 20.9873 20.5719 21.044 20.4351C21.1006 20.2984 21.1298 20.1519 21.1298 20.0039C21.1298 19.8559 21.1006 19.7093 21.044 19.5726C20.9873 19.4359 20.9043 19.3116 20.7997 19.207L20.7959 19.2042ZM3.125 9.50012C3.125 8.23926 3.49889 7.00672 4.19938 5.95836C4.89988 4.90999 5.89552 4.09289 7.06039 3.61038C8.22527 3.12788 9.50707 3.00163 10.7437 3.24761C11.9803 3.49359 13.1162 4.10075 14.0078 4.99231C14.8994 5.88387 15.5065 7.01979 15.7525 8.25642C15.9985 9.49304 15.8722 10.7748 15.3897 11.9397C14.9072 13.1046 14.0901 14.1002 13.0418 14.8007C11.9934 15.5012 10.7609 15.8751 9.5 15.8751C7.80978 15.8734 6.18928 15.2012 4.99411 14.006C3.79895 12.8108 3.12674 11.1903 3.125 9.50012Z" fill="black" fill-opacity="0.4"/>
</svg>
