<svg width="12" height="7" viewBox="0 0 12 7" fill="none" xmlns="http://www.w3.org/2000/svg">
<path d="M11.5306 1.53073L6.53063 6.53073C6.46095 6.60065 6.37816 6.65613 6.28699 6.69399C6.19583 6.73184 6.09809 6.75133 5.99938 6.75133C5.90067 6.75133 5.80293 6.73184 5.71176 6.69399C5.6206 6.65613 5.53781 6.60065 5.46813 6.53073L0.468128 1.53073C0.327232 1.38984 0.248077 1.19874 0.248077 0.999484C0.248077 0.800227 0.327232 0.609131 0.468128 0.468235C0.609025 0.327338 0.800121 0.248184 0.999378 0.248184C1.19864 0.248184 1.38973 0.327338 1.53063 0.468235L6 4.93761L10.4694 0.46761C10.6103 0.326714 10.8014 0.247559 11.0006 0.247559C11.1999 0.247559 11.391 0.326714 11.5319 0.46761C11.6728 0.608506 11.7519 0.799602 11.7519 0.99886C11.7519 1.19812 11.6728 1.38921 11.5319 1.53011L11.5306 1.53073Z" fill="black"/>
</svg>
