<svg width="71" height="71" viewBox="0 0 71 71" fill="none" xmlns="http://www.w3.org/2000/svg">
<path d="M50.4825 42.8893C50.2151 44.9218 49.2169 46.7876 47.6743 48.138C46.1318 49.4883 44.1505 50.2311 42.1004 50.2274C30.1902 50.2274 20.5 40.5372 20.5 28.627C20.4963 26.5769 21.2391 24.5956 22.5894 23.0531C23.9398 21.5105 25.8056 20.5123 27.8381 20.2449C28.3521 20.1821 28.8726 20.2873 29.3219 20.5446C29.7713 20.802 30.1253 21.1978 30.3312 21.6729L33.4992 28.7455V28.7635C33.6569 29.1272 33.722 29.5243 33.6887 29.9193C33.6555 30.3142 33.5249 30.6948 33.3087 31.0271C33.2817 31.0676 33.2532 31.1051 33.2232 31.1426L30.1002 34.8446C31.2237 37.1277 33.6117 39.4947 35.9248 40.6212L39.5758 37.5147C39.6117 37.4845 39.6493 37.4565 39.6883 37.4307C40.0203 37.2093 40.4022 37.0741 40.7995 37.0375C41.1968 37.0008 41.597 37.0638 41.9639 37.2207L41.9834 37.2297L49.05 40.3962C49.526 40.6014 49.9227 40.9551 50.1809 41.4045C50.4391 41.8539 50.5449 42.3748 50.4825 42.8893Z" fill="#64CCC5"/>
</svg>
